<svg data-v-fde0c5aa="" xmlns="http://www.w3.org/2000/svg" viewBox="0 0 300 300" class="font"><!----><defs data-v-fde0c5aa=""><!----></defs><rect data-v-fde0c5aa="" fill="transparent" x="0" y="0" width="300px" height="300px" class="logo-background-square"></rect><defs data-v-fde0c5aa=""><linearGradient data-v-fde0c5aa="" gradientTransform="rotate(25)" id="53d94003-4165-49be-9097-bc53ddad1a6e" x1="0%" y1="0%" x2="100%" y2="0%"><stop data-v-fde0c5aa="" offset="0%" stop-color="#E90DDA" stop-opacity="1"></stop><stop data-v-fde0c5aa="" offset="100%" stop-color="#15CFF1" stop-opacity="1"></stop></linearGradient></defs><g data-v-fde0c5aa="" id="0d4727c5-f061-4fd0-8767-2fe24fc756d2" fill="url(#53d94003-4165-49be-9097-bc53ddad1a6e)" transform="matrix(4.239737956980742,0,0,4.239737956980742,36.18423568709249,114.2378115862995)"><path d="M6.30 1.26L6.30 1.26Q7.36 1.26 8.14 1.54L8.14 1.54L8.14 1.54Q8.92 1.82 9.72 2.46L9.72 2.46L9.72 2.46Q9.88 2.59 9.94 2.72L9.94 2.72L9.94 2.72Q10.00 2.86 10.00 3.04L10.00 3.04L10.00 3.04Q10.00 3.32 9.79 3.50L9.79 3.50L9.79 3.50Q9.59 3.68 9.32 3.68L9.32 3.68L9.32 3.68Q9.06 3.68 8.83 3.50L8.83 3.50L8.83 3.50Q8.26 3.01 7.71 2.79L7.71 2.79L7.71 2.79Q7.17 2.58 6.30 2.58L6.30 2.58L6.30 2.58Q5.21 2.58 4.29 3.15L4.29 3.15L4.29 3.15Q3.37 3.72 2.83 4.71L2.83 4.71L2.83 4.71Q2.30 5.70 2.30 6.86L2.30 6.86L2.30 6.86Q2.30 8.04 2.83 9.02L2.83 9.02L2.83 9.02Q3.37 10.00 4.29 10.57L4.29 10.57L4.29 10.57Q5.21 11.14 6.30 11.14L6.30 11.14L6.30 11.14Q7.64 11.14 8.88 10.22L8.88 10.22L8.88 10.22Q9.11 10.05 9.34 10.05L9.34 10.05L9.34 10.05Q9.60 10.05 9.78 10.24L9.78 10.24L9.78 10.24Q9.95 10.43 9.95 10.74L9.95 10.74L9.95 10.74Q9.95 11.03 9.73 11.26L9.73 11.26L9.73 11.26Q8.22 12.47 6.30 12.47L6.30 12.47L6.30 12.47Q4.80 12.47 3.56 11.73L3.56 11.73L3.56 11.73Q2.32 10.99 1.61 9.70L1.61 9.70L1.61 9.70Q0.90 8.41 0.90 6.86L0.90 6.86L0.90 6.86Q0.90 5.32 1.61 4.04L1.61 4.04L1.61 4.04Q2.32 2.76 3.56 2.01L3.56 2.01L3.56 2.01Q4.80 1.26 6.30 1.26L6.30 1.26ZM15.61 4.62L15.61 4.62Q16.72 4.62 17.59 5.12L17.59 5.12L17.59 5.12Q18.47 5.61 18.96 6.50L18.96 6.50L18.96 6.50Q19.46 7.38 19.46 8.51L19.46 8.51L19.46 8.51Q19.46 9.63 18.97 10.51L18.97 10.51L18.97 10.51Q18.48 11.40 17.61 11.89L17.61 11.89L17.61 11.89Q16.73 12.39 15.61 12.39L15.61 12.39L15.61 12.39Q14.49 12.39 13.61 11.89L13.61 11.89L13.61 11.89Q12.73 11.40 12.24 10.51L12.24 10.51L12.24 10.51Q11.75 9.63 11.75 8.51L11.75 8.51L11.75 8.51Q11.75 7.38 12.24 6.50L12.24 6.50L12.24 6.50Q12.73 5.61 13.61 5.12L13.61 5.12L13.61 5.12Q14.49 4.62 15.61 4.62L15.61 4.62ZM15.61 5.88L15.61 5.88Q14.90 5.88 14.33 6.22L14.33 6.22L14.33 6.22Q13.76 6.55 13.44 7.15L13.44 7.15L13.44 7.15Q13.12 7.76 13.12 8.51L13.12 8.51L13.12 8.51Q13.12 9.27 13.44 9.86L13.44 9.86L13.44 9.86Q13.76 10.46 14.33 10.79L14.33 10.79L14.33 10.79Q14.90 11.13 15.61 11.13L15.61 11.13L15.61 11.13Q16.32 11.13 16.89 10.79L16.89 10.79L16.89 10.79Q17.46 10.46 17.77 9.86L17.77 9.86L17.77 9.86Q18.09 9.27 18.09 8.51L18.09 8.51L18.09 8.51Q18.09 7.76 17.77 7.15L17.77 7.15L17.77 7.15Q17.46 6.55 16.89 6.22L16.89 6.22L16.89 6.22Q16.32 5.88 15.61 5.88L15.61 5.88ZM21.31 2.10L21.31 2.10Q21.31 1.79 21.50 1.60L21.50 1.60L21.50 1.60Q21.70 1.40 22.01 1.40L22.01 1.40L22.01 1.40Q22.32 1.40 22.51 1.60L22.51 1.60L22.51 1.60Q22.71 1.79 22.71 2.10L22.71 2.10L22.71 9.74L22.71 9.74Q22.71 10.26 22.90 10.60L22.90 10.60L22.90 10.60Q23.10 10.93 23.41 10.93L23.41 10.93L23.76 10.93L23.76 10.93Q24.04 10.93 24.21 11.13L24.21 11.13L24.21 11.13Q24.39 11.33 24.39 11.63L24.39 11.63L24.39 11.63Q24.39 11.94 24.12 12.14L24.12 12.14L24.12 12.14Q23.86 12.33 23.44 12.33L23.44 12.33L23.41 12.33L23.41 12.33Q22.81 12.33 22.32 12.00L22.32 12.00L22.32 12.00Q21.84 11.68 21.57 11.08L21.57 11.08L21.57 11.08Q21.31 10.49 21.31 9.74L21.31 9.74L21.31 2.10ZM29.26 4.62L29.26 4.62Q30.34 4.62 31.21 5.13L31.21 5.13L31.21 5.13Q32.09 5.64 32.60 6.53L32.60 6.53L32.60 6.53Q33.11 7.42 33.11 8.51L33.11 8.51L33.11 11.63L33.11 11.63Q33.11 11.94 32.91 12.14L32.91 12.14L32.91 12.14Q32.70 12.35 32.40 12.35L32.40 12.35L32.40 12.35Q32.09 12.35 31.89 12.14L31.89 12.14L31.89 12.14Q31.68 11.94 31.68 11.63L31.68 11.63L31.68 11.12L31.68 11.12Q31.19 11.72 30.49 12.05L30.49 12.05L30.49 12.05Q29.79 12.39 28.98 12.39L28.98 12.39L28.98 12.39Q27.97 12.39 27.15 11.89L27.15 11.89L27.15 11.89Q26.33 11.38 25.87 10.49L25.87 10.49L25.87 10.49Q25.40 9.60 25.40 8.51L25.40 8.51L25.40 8.51Q25.40 7.42 25.90 6.53L25.90 6.53L25.90 6.53Q26.40 5.64 27.29 5.13L27.29 5.13L27.29 5.13Q28.18 4.62 29.26 4.62L29.26 4.62ZM29.26 11.13L29.26 11.13Q29.96 11.13 30.53 10.79L30.53 10.79L30.53 10.79Q31.09 10.44 31.42 9.85L31.42 9.85L31.42 9.85Q31.74 9.25 31.74 8.51L31.74 8.51L31.74 8.51Q31.74 7.77 31.42 7.17L31.42 7.17L31.42 7.17Q31.09 6.57 30.53 6.22L30.53 6.22L30.53 6.22Q29.96 5.88 29.26 5.88L29.26 5.88L29.26 5.88Q28.56 5.88 27.99 6.22L27.99 6.22L27.99 6.22Q27.43 6.57 27.10 7.17L27.10 7.17L27.10 7.17Q26.77 7.77 26.77 8.51L26.77 8.51L26.77 8.51Q26.77 9.25 27.10 9.85L27.10 9.85L27.10 9.85Q27.43 10.44 27.99 10.79L27.99 10.79L27.99 10.79Q28.56 11.13 29.26 11.13L29.26 11.13ZM39.09 4.62L39.09 4.62Q40.17 4.62 41.05 5.13L41.05 5.13L41.05 5.13Q41.94 5.64 42.45 6.53L42.45 6.53L42.45 6.53Q42.95 7.42 42.95 8.51L42.95 8.51L42.95 8.51Q42.95 9.60 42.48 10.49L42.48 10.49L42.48 10.49Q42.01 11.38 41.20 11.89L41.20 11.89L41.20 11.89Q40.38 12.39 39.37 12.39L39.37 12.39L39.37 12.39Q38.56 12.39 37.86 12.05L37.86 12.05L37.86 12.05Q37.16 11.72 36.67 11.12L36.67 11.12L36.67 14.90L36.67 14.90Q36.67 15.22 36.47 15.41L36.47 15.41L36.47 15.41Q36.27 15.61 35.95 15.61L35.95 15.61L35.95 15.61Q35.64 15.61 35.44 15.41L35.44 15.41L35.44 15.41Q35.24 15.22 35.24 14.90L35.24 14.90L35.24 8.51L35.24 8.51Q35.24 7.42 35.75 6.53L35.75 6.53L35.75 6.53Q36.26 5.64 37.14 5.13L37.14 5.13L37.14 5.13Q38.01 4.62 39.09 4.62L39.09 4.62ZM39.09 11.13L39.09 11.13Q39.79 11.13 40.36 10.79L40.36 10.79L40.36 10.79Q40.92 10.44 41.25 9.85L41.25 9.85L41.25 9.85Q41.58 9.25 41.58 8.51L41.58 8.51L41.58 8.51Q41.58 7.77 41.25 7.17L41.25 7.17L41.25 7.17Q40.92 6.57 40.36 6.22L40.36 6.22L40.36 6.22Q39.79 5.88 39.09 5.88L39.09 5.88L39.09 5.88Q38.39 5.88 37.82 6.22L37.82 6.22L37.82 6.22Q37.25 6.57 36.93 7.17L36.93 7.17L36.93 7.17Q36.61 7.77 36.61 8.51L36.61 8.51L36.61 8.51Q36.61 9.25 36.93 9.85L36.93 9.85L36.93 9.85Q37.25 10.44 37.82 10.79L37.82 10.79L37.82 10.79Q38.39 11.13 39.09 11.13L39.09 11.13ZM48.93 4.62L48.93 4.62Q50.01 4.62 50.90 5.13L50.90 5.13L50.90 5.13Q51.79 5.64 52.29 6.53L52.29 6.53L52.29 6.53Q52.79 7.42 52.79 8.51L52.79 8.51L52.79 8.51Q52.79 9.60 52.33 10.49L52.33 10.49L52.33 10.49Q51.86 11.38 51.04 11.89L51.04 11.89L51.04 11.89Q50.22 12.39 49.21 12.39L49.21 12.39L49.21 12.39Q48.40 12.39 47.70 12.05L47.70 12.05L47.70 12.05Q47.00 11.72 46.51 11.12L46.51 11.12L46.51 14.90L46.51 14.90Q46.51 15.22 46.31 15.41L46.31 15.41L46.31 15.41Q46.12 15.61 45.79 15.61L45.79 15.61L45.79 15.61Q45.49 15.61 45.28 15.41L45.28 15.41L45.28 15.41Q45.08 15.22 45.08 14.90L45.08 14.90L45.08 8.51L45.08 8.51Q45.08 7.42 45.59 6.53L45.59 6.53L45.59 6.53Q46.10 5.64 46.98 5.13L46.98 5.13L46.98 5.13Q47.85 4.62 48.93 4.62L48.93 4.62ZM48.93 11.13L48.93 11.13Q49.63 11.13 50.20 10.79L50.20 10.79L50.20 10.79Q50.76 10.44 51.09 9.85L51.09 9.85L51.09 9.85Q51.42 9.25 51.42 8.51L51.42 8.51L51.42 8.51Q51.42 7.77 51.09 7.17L51.09 7.17L51.09 7.17Q50.76 6.57 50.20 6.22L50.20 6.22L50.20 6.22Q49.63 5.88 48.93 5.88L48.93 5.88L48.93 5.88Q48.23 5.88 47.66 6.22L47.66 6.22L47.66 6.22Q47.10 6.57 46.77 7.17L46.77 7.17L46.77 7.17Q46.45 7.77 46.45 8.51L46.45 8.51L46.45 8.51Q46.45 9.25 46.77 9.85L46.77 9.85L46.77 9.85Q47.10 10.44 47.66 10.79L47.66 10.79L47.66 10.79Q48.23 11.13 48.93 11.13L48.93 11.13Z"></path></g><!----><!----></svg>